<svg width="29" height="40" viewBox="0 0 29 40" fill="none" xmlns="http://www.w3.org/2000/svg">
<path d="M21.75 27L19.3 24.55L22.0125 21.75H13V18.25H22.0125L19.3 15.45L21.75 13L28.75 20L21.75 27ZM4.25 39.25C3.2875 39.25 2.46354 38.9073 1.77812 38.2219C1.09271 37.5365 0.75 36.7125 0.75 35.75V4.25C0.75 3.2875 1.09271 2.46354 1.77812 1.77812C2.46354 1.09271 3.2875 0.75 4.25 0.75H21.75C22.7125 0.75 23.5365 1.09271 24.2219 1.77812C24.9073 2.46354 25.25 3.2875 25.25 4.25V11.25H21.75V9.5H4.25V30.5H21.75V28.75H25.25V35.75C25.25 36.7125 24.9073 37.5365 24.2219 38.2219C23.5365 38.9073 22.7125 39.25 21.75 39.25H4.25ZM4.25 34V35.75H21.75V34H4.25ZM4.25 6H21.75V4.25H4.25V6Z" fill="#5F6368"/>
</svg>
