<svg width="34" height="34" viewBox="0 0 34 34" fill="none" xmlns="http://www.w3.org/2000/svg">
<path d="M8.75 9.66667V24.3333L16.0833 17L8.75 9.66667ZM4.16667 33.5C3.15833 33.5 2.29514 33.141 1.57708 32.4229C0.859028 31.7049 0.5 30.8417 0.5 29.8333V4.16667C0.5 3.15833 0.859028 2.29514 1.57708 1.57708C2.29514 0.859028 3.15833 0.5 4.16667 0.5H29.8333C30.8417 0.5 31.7049 0.859028 32.4229 1.57708C33.141 2.29514 33.5 3.15833 33.5 4.16667V29.8333C33.5 30.8417 33.141 31.7049 32.4229 32.4229C31.7049 33.141 30.8417 33.5 29.8333 33.5H4.16667ZM24.3333 29.8333H29.8333V4.16667H24.3333V29.8333ZM20.6667 29.8333V4.16667H4.16667V29.8333H20.6667Z" fill="#FDFCFC"/>
</svg>
