<svg width="39" height="39" viewBox="0 0 39 39" fill="none" xmlns="http://www.w3.org/2000/svg">
<path d="M13.875 23.7188C13.2188 23.7188 12.6641 23.4922 12.2109 23.0391C11.7578 22.5859 11.5312 22.0312 11.5312 21.375C11.5312 20.7188 11.7578 20.1641 12.2109 19.7109C12.6641 19.2578 13.2188 19.0312 13.875 19.0312C14.5312 19.0312 15.0859 19.2578 15.5391 19.7109C15.9922 20.1641 16.2188 20.7188 16.2188 21.375C16.2188 22.0312 15.9922 22.5859 15.5391 23.0391C15.0859 23.4922 14.5312 23.7188 13.875 23.7188ZM25.125 23.7188C24.4688 23.7188 23.9141 23.4922 23.4609 23.0391C23.0078 22.5859 22.7812 22.0312 22.7812 21.375C22.7812 20.7188 23.0078 20.1641 23.4609 19.7109C23.9141 19.2578 24.4688 19.0312 25.125 19.0312C25.7812 19.0312 26.3359 19.2578 26.7891 19.7109C27.2422 20.1641 27.4688 20.7188 27.4688 21.375C27.4688 22.0312 27.2422 22.5859 26.7891 23.0391C26.3359 23.4922 25.7812 23.7188 25.125 23.7188ZM19.5 34.5C23.6875 34.5 27.2344 33.0469 30.1406 30.1406C33.0469 27.2344 34.5 23.6875 34.5 19.5C34.5 18.75 34.4531 18.0234 34.3594 17.3203C34.2656 16.6172 34.0938 15.9375 33.8438 15.2812C33.1875 15.4375 32.5312 15.5547 31.875 15.6328C31.2188 15.7109 30.5312 15.75 29.8125 15.75C26.9687 15.75 24.2812 15.1406 21.75 13.9219C19.2188 12.7031 17.0625 11 15.2812 8.8125C14.2812 11.25 12.8516 13.3672 10.9922 15.1641C9.13281 16.9609 6.96875 18.3125 4.5 19.2188V19.5C4.5 23.6875 5.95312 27.2344 8.85938 30.1406C11.7656 33.0469 15.3125 34.5 19.5 34.5ZM19.5 38.25C16.9063 38.25 14.4688 37.7578 12.1875 36.7734C9.90625 35.7891 7.92188 34.4531 6.23438 32.7656C4.54688 31.0781 3.21094 29.0938 2.22656 26.8125C1.24219 24.5312 0.75 22.0937 0.75 19.5C0.75 16.9063 1.24219 14.4688 2.22656 12.1875C3.21094 9.90625 4.54688 7.92188 6.23438 6.23438C7.92188 4.54688 9.90625 3.21094 12.1875 2.22656C14.4688 1.24219 16.9063 0.75 19.5 0.75C22.0937 0.75 24.5312 1.24219 26.8125 2.22656C29.0938 3.21094 31.0781 4.54688 32.7656 6.23438C34.4531 7.92188 35.7891 9.90625 36.7734 12.1875C37.7578 14.4688 38.25 16.9063 38.25 19.5C38.25 22.0937 37.7578 24.5312 36.7734 26.8125C35.7891 29.0938 34.4531 31.0781 32.7656 32.7656C31.0781 34.4531 29.0938 35.7891 26.8125 36.7734C24.5312 37.7578 22.0937 38.25 19.5 38.25ZM16.9688 4.73438C18.2812 6.92188 20.0625 8.67969 22.3125 10.0078C24.5625 11.3359 27.0625 12 29.8125 12C30.25 12 30.6719 11.9766 31.0781 11.9297C31.4844 11.8828 31.9063 11.8281 32.3438 11.7656C31.0312 9.57812 29.25 7.82031 27 6.49219C24.75 5.16406 22.25 4.5 19.5 4.5C19.0625 4.5 18.6406 4.52344 18.2344 4.57031C17.8281 4.61719 17.4062 4.67187 16.9688 4.73438ZM5.29688 14.7656C6.89062 13.8594 8.28125 12.6875 9.46875 11.25C10.6563 9.8125 11.5469 8.20312 12.1406 6.42188C10.5469 7.32813 9.15625 8.5 7.96875 9.9375C6.78125 11.375 5.89063 12.9844 5.29688 14.7656Z" fill="#5F6368"/>
</svg>
