<svg width="45" height="45" viewBox="0 0 45 45" fill="none" xmlns="http://www.w3.org/2000/svg">
<path d="M16.875 26.7188C16.2188 26.7188 15.6641 26.4922 15.2109 26.0391C14.7578 25.5859 14.5312 25.0312 14.5312 24.375C14.5312 23.7188 14.7578 23.1641 15.2109 22.7109C15.6641 22.2578 16.2188 22.0312 16.875 22.0312C17.5312 22.0312 18.0859 22.2578 18.5391 22.7109C18.9922 23.1641 19.2188 23.7188 19.2188 24.375C19.2188 25.0312 18.9922 25.5859 18.5391 26.0391C18.0859 26.4922 17.5312 26.7188 16.875 26.7188ZM28.125 26.7188C27.4688 26.7188 26.9141 26.4922 26.4609 26.0391C26.0078 25.5859 25.7812 25.0312 25.7812 24.375C25.7812 23.7188 26.0078 23.1641 26.4609 22.7109C26.9141 22.2578 27.4688 22.0312 28.125 22.0312C28.7812 22.0312 29.3359 22.2578 29.7891 22.7109C30.2422 23.1641 30.4688 23.7188 30.4688 24.375C30.4688 25.0312 30.2422 25.5859 29.7891 26.0391C29.3359 26.4922 28.7812 26.7188 28.125 26.7188ZM22.5 37.5C26.6875 37.5 30.2344 36.0469 33.1406 33.1406C36.0469 30.2344 37.5 26.6875 37.5 22.5C37.5 21.75 37.4531 21.0234 37.3594 20.3203C37.2656 19.6172 37.0938 18.9375 36.8438 18.2812C36.1875 18.4375 35.5312 18.5547 34.875 18.6328C34.2188 18.7109 33.5312 18.75 32.8125 18.75C29.9687 18.75 27.2812 18.1406 24.75 16.9219C22.2188 15.7031 20.0625 14 18.2812 11.8125C17.2812 14.25 15.8516 16.3672 13.9922 18.1641C12.1328 19.9609 9.96875 21.3125 7.5 22.2188V22.5C7.5 26.6875 8.95312 30.2344 11.8594 33.1406C14.7656 36.0469 18.3125 37.5 22.5 37.5ZM22.5 41.25C19.9063 41.25 17.4688 40.7578 15.1875 39.7734C12.9062 38.7891 10.9219 37.4531 9.23438 35.7656C7.54688 34.0781 6.21094 32.0938 5.22656 29.8125C4.24219 27.5312 3.75 25.0937 3.75 22.5C3.75 19.9063 4.24219 17.4688 5.22656 15.1875C6.21094 12.9062 7.54688 10.9219 9.23438 9.23438C10.9219 7.54688 12.9062 6.21094 15.1875 5.22656C17.4688 4.24219 19.9063 3.75 22.5 3.75C25.0937 3.75 27.5312 4.24219 29.8125 5.22656C32.0938 6.21094 34.0781 7.54688 35.7656 9.23438C37.4531 10.9219 38.7891 12.9062 39.7734 15.1875C40.7578 17.4688 41.25 19.9063 41.25 22.5C41.25 25.0937 40.7578 27.5312 39.7734 29.8125C38.7891 32.0938 37.4531 34.0781 35.7656 35.7656C34.0781 37.4531 32.0938 38.7891 29.8125 39.7734C27.5312 40.7578 25.0937 41.25 22.5 41.25ZM19.9688 7.73438C21.2812 9.92188 23.0625 11.6797 25.3125 13.0078C27.5625 14.3359 30.0625 15 32.8125 15C33.25 15 33.6719 14.9766 34.0781 14.9297C34.4844 14.8828 34.9063 14.8281 35.3438 14.7656C34.0312 12.5781 32.25 10.8203 30 9.49219C27.75 8.16406 25.25 7.5 22.5 7.5C22.0625 7.5 21.6406 7.52344 21.2344 7.57031C20.8281 7.61719 20.4062 7.67187 19.9688 7.73438ZM8.29688 17.7656C9.89062 16.8594 11.2812 15.6875 12.4688 14.25C13.6563 12.8125 14.5469 11.2031 15.1406 9.42188C13.5469 10.3281 12.1563 11.5 10.9688 12.9375C9.78125 14.375 8.89063 15.9844 8.29688 17.7656Z" fill="#5F6368"/>
</svg>
