<svg width="36" height="36" viewBox="0 0 36 36" fill="none" xmlns="http://www.w3.org/2000/svg">
<path d="M16.25 26.75H19.75V19.75H26.75V16.25H19.75V9.25H16.25V16.25H9.25V19.75H16.25V26.75ZM18 35.5C15.5792 35.5 13.3042 35.0406 11.175 34.1219C9.04583 33.2031 7.19375 31.9562 5.61875 30.3812C4.04375 28.8062 2.79687 26.9542 1.87812 24.825C0.959375 22.6958 0.5 20.4208 0.5 18C0.5 15.5792 0.959375 13.3042 1.87812 11.175C2.79687 9.04583 4.04375 7.19375 5.61875 5.61875C7.19375 4.04375 9.04583 2.79687 11.175 1.87812C13.3042 0.959375 15.5792 0.5 18 0.5C20.4208 0.5 22.6958 0.959375 24.825 1.87812C26.9542 2.79687 28.8062 4.04375 30.3812 5.61875C31.9562 7.19375 33.2031 9.04583 34.1219 11.175C35.0406 13.3042 35.5 15.5792 35.5 18C35.5 20.4208 35.0406 22.6958 34.1219 24.825C33.2031 26.9542 31.9562 28.8062 30.3812 30.3812C28.8062 31.9562 26.9542 33.2031 24.825 34.1219C22.6958 35.0406 20.4208 35.5 18 35.5ZM18 32C21.9083 32 25.2187 30.6437 27.9312 27.9312C30.6437 25.2187 32 21.9083 32 18C32 14.0917 30.6437 10.7812 27.9312 8.06875C25.2187 5.35625 21.9083 4 18 4C14.0917 4 10.7812 5.35625 8.06875 8.06875C5.35625 10.7812 4 14.0917 4 18C4 21.9083 5.35625 25.2187 8.06875 27.9312C10.7812 30.6437 14.0917 32 18 32Z" fill="#5F6368"/>
</svg>
