<svg width="42" height="42" viewBox="0 0 42 42" fill="none" xmlns="http://www.w3.org/2000/svg">
<path d="M29.75 28L27.3 25.55L30.0125 22.75H21V19.25H30.0125L27.3 16.45L29.75 14L36.75 21L29.75 28ZM12.25 40.25C11.2875 40.25 10.4635 39.9073 9.77812 39.2219C9.09271 38.5365 8.75 37.7125 8.75 36.75V5.25C8.75 4.2875 9.09271 3.46354 9.77812 2.77812C10.4635 2.09271 11.2875 1.75 12.25 1.75H29.75C30.7125 1.75 31.5365 2.09271 32.2219 2.77812C32.9073 3.46354 33.25 4.2875 33.25 5.25V12.25H29.75V10.5H12.25V31.5H29.75V29.75H33.25V36.75C33.25 37.7125 32.9073 38.5365 32.2219 39.2219C31.5365 39.9073 30.7125 40.25 29.75 40.25H12.25ZM12.25 35V36.75H29.75V35H12.25ZM12.25 7H29.75V5.25H12.25V7Z" fill="#5F6368"/>
</svg>
