<svg width="27" height="27" viewBox="0 0 27 27" fill="none" xmlns="http://www.w3.org/2000/svg">
<path d="M6.9375 7.66667V19.3333L12.7708 13.5L6.9375 7.66667ZM3.29167 26.625C2.48958 26.625 1.80295 26.3394 1.23177 25.7682C0.66059 25.197 0.375 24.5104 0.375 23.7083V3.29167C0.375 2.48958 0.66059 1.80295 1.23177 1.23177C1.80295 0.66059 2.48958 0.375 3.29167 0.375H23.7083C24.5104 0.375 25.197 0.66059 25.7682 1.23177C26.3394 1.80295 26.625 2.48958 26.625 3.29167V23.7083C26.625 24.5104 26.3394 25.197 25.7682 25.7682C25.197 26.3394 24.5104 26.625 23.7083 26.625H3.29167ZM19.3333 23.7083H23.7083V3.29167H19.3333V23.7083ZM16.4167 23.7083V3.29167H3.29167V23.7083H16.4167Z" fill="#FDFCFC"/>
</svg>
